<?xml version="1.0" standalone="no"?>
<!DOCTYPE svg PUBLIC "-//W3C//DTD SVG 1.0//EN" "http://www.w3.org/TR/2001/REC-SVG-20010904/DTD/svg10.dtd">
<svg xmlns="http://www.w3.org/2000/svg" xmlns:xlink="http://www.w3.org/1999/xlink" id="body_1" width="3335" height="3335">

<g transform="matrix(6.67 0 0 6.67 0 0)">
	<g transform="matrix(0.1 0 -0 -0.1 0 500)">
        <path d="M230 2735L230 2470L410 2470L590 2470L590 2525L590 2580L470 2580L350 2580L350 2630L350 2680L455 2680L560 2680L560 2735L560 2790L455 2790L350 2790L350 2840L350 2890L470 2890L590 2890L590 2945L590 3000L410 3000L230 3000L230 2735z" stroke="none" fill="#000000" fill-rule="nonzero" />
        <path d="M1318 2864L1315 2729L1147 2859C 1055 2931 978 2990 975 2990C 972 2990 970 2873 970 2730L970 2730L970 2470L1030 2470L1090 2470L1090 2600C 1090 2672 1092 2730 1095 2730C 1098 2730 1162 2684 1238 2627C 1313 2570 1390 2514 1408 2501L1408 2501L1440 2479L1440 2739L1440 3000L1380 3000L1321 3000L1318 2864z" stroke="none" fill="#000000" fill-rule="nonzero" />
        <path d="M1820 2940L1820 2880L1885 2880L1950 2880L1952 2678L1955 2475L2012 2472L2070 2469L2072 2672L2075 2875L2143 2878L2210 2881L2210 2940L2210 3000L2015 3000L1820 3000L1820 2940z" stroke="none" fill="#000000" fill-rule="nonzero" />
        <path d="M2770 2991C 2656 2956 2577 2850 2577 2730C 2576 2577 2691 2460 2841 2460C 2987 2461 3096 2561 3108 2706C 3121 2869 2997 3003 2836 2999C 2813 2999 2784 2995 2770 2991zM2932 2865C 2980 2829 3000 2788 3000 2729C 3000 2582 2846 2514 2735 2611C 2655 2681 2669 2812 2762 2871C 2804 2897 2893 2894 2932 2865z" stroke="none" fill="#000000" fill-rule="nonzero" />
        <path d="M3480 2839C 3480 2750 3485 2658 3492 2632C 3518 2530 3645 2454 3748 2480C 3812 2495 3866 2535 3898 2589C 3923 2632 3924 2641 3928 2817L3928 2817L3932 3000L3876 3000L3820 3000L3820 2845C 3820 2668 3811 2631 3759 2605C 3715 2582 3655 2591 3621 2624C 3595 2650 3595 2652 3592 2825L3592 2825L3589 3000L3534 3000L3480 3000L3480 2839z" stroke="none" fill="#000000" fill-rule="nonzero" />
        <path d="M4648 2866L4645 2733L4505 2842C 4428 2903 4353 2961 4338 2972L4338 2972L4310 2991L4310 2730L4310 2469L4366 2472L4423 2475L4422 2597C 4421 2664 4424 2721 4428 2724C 4433 2727 4511 2673 4603 2604C 4695 2536 4773 2480 4775 2480C 4778 2480 4780 2597 4780 2740L4780 2740L4780 3000L4715 3000L4651 3000L4648 2866z" stroke="none" fill="#000000" fill-rule="nonzero" />
	</g>
</g>
</svg>