<?xml version="1.0" standalone="no"?>
<!DOCTYPE svg PUBLIC "-//W3C//DTD SVG 20010904//EN"
 "http://www.w3.org/TR/2001/REC-SVG-20010904/DTD/svg10.dtd">
<svg version="1.0" xmlns="http://www.w3.org/2000/svg"
 width="150.000000pt" height="40.000000pt" viewBox="0 0 150.000000 40.000000"
 preserveAspectRatio="xMidYMid meet">

<g transform="translate(0.000000,40.000000) scale(0.100000,-0.100000)"
fill="#000000" stroke="none">
<path d="M0 205 l0 -105 60 0 c53 0 60 2 60 20 0 17 -7 20 -40 20 -33 0 -40 3
-40 20 0 16 7 20 36 20 31 0 35 3 32 23 -2 17 -11 23 -35 25 -25 2 -33 8 -33
23 0 16 7 19 40 19 33 0 40 3 40 20 0 18 -7 20 -60 20 l-60 0 0 -105z"/>
<path d="M240 207 c0 -99 1 -107 19 -107 17 0 20 8 23 50 l3 49 58 -50 57 -51
0 106 c0 99 -1 106 -20 106 -18 0 -20 -7 -20 -57 l0 -57 -60 59 -60 59 0 -107z"/>
<path d="M520 285 c0 -20 5 -25 25 -25 25 0 25 -1 25 -80 0 -73 2 -80 20 -80
18 0 20 7 20 80 0 73 2 80 20 80 15 0 20 7 20 25 0 24 -2 25 -65 25 -63 0 -65
-1 -65 -25z"/>
<path d="M807 284 c-49 -49 -47 -125 5 -169 33 -28 46 -30 83 -13 51 23 70
100 40 158 -29 55 -86 66 -128 24z m81 -30 c30 -21 31 -87 1 -108 -56 -39
-109 54 -59 104 24 24 29 24 58 4z"/>
<path d="M1070 240 c0 -81 18 -127 54 -136 64 -16 96 29 96 136 0 63 -2 70
-20 70 -18 0 -20 -7 -20 -75 0 -60 -3 -76 -17 -84 -11 -6 -24 -6 -35 0 -15 8
-18 23 -18 84 0 68 -2 75 -20 75 -18 0 -20 -7 -20 -70z"/>
<path d="M1460 253 l0 -57 -55 54 -55 54 0 -102 c0 -82 3 -102 14 -102 11 0
16 15 18 52 l3 51 58 -52 57 -53 0 106 c0 99 -1 106 -20 106 -18 0 -20 -7 -20
-57z"/>
</g>
</svg>
